<mxfile host="app.diagrams.net" modified="2024-01-22T13:24:05.024Z" agent="Mozilla/5.0 (X11; Linux x86_64; rv:121.0) Gecko/20100101 Firefox/121.0" version="22.1.21" etag="yYx2btCeLpu5IbPp9xG6" type="github">
  <diagram name="Page-1" id="gFfrrCDwq1luvMO310fa">
    <mxGraphModel>
      <root>
        <mxCell id="0" />
        <mxCell id="1" parent="0" />
      </root>
    </mxGraphModel>
  </diagram>
</mxfile>
